<svg width="176" height="44" viewBox="0 0 176 44" fill="none" xmlns="http://www.w3.org/2000/svg">
<g clip-path="url(#clip0_102_100)">
<path d="M56.2109 31V15H67.1328V18.1406H60.0781V21.4219H66.4375V24.5703H60.0781V31H56.2109ZM69.0801 31V19H72.9004V31H69.0801ZM70.9941 17.6016C70.4577 17.6016 69.9967 17.4245 69.6113 17.0703C69.2259 16.7109 69.0332 16.2786 69.0332 15.7734C69.0332 15.2734 69.2259 14.8464 69.6113 14.4922C69.9967 14.1328 70.4577 13.9531 70.9941 13.9531C71.5358 13.9531 71.9967 14.1328 72.377 14.4922C72.7624 14.8464 72.9551 15.2734 72.9551 15.7734C72.9551 16.2786 72.7624 16.7109 72.377 17.0703C71.9967 17.4245 71.5358 17.6016 70.9941 17.6016ZM79.1523 15V31H75.332V15H79.1523ZM81.584 31V19H85.2168V21.2031H85.3496C85.5996 20.474 86.0215 19.8984 86.6152 19.4766C87.209 19.0547 87.9173 18.8438 88.7402 18.8438C89.5736 18.8438 90.2871 19.0573 90.8809 19.4844C91.4746 19.9115 91.8522 20.4844 92.0137 21.2031H92.1387C92.3626 20.4896 92.8001 19.9193 93.4512 19.4922C94.1022 19.0599 94.8704 18.8438 95.7559 18.8438C96.8913 18.8438 97.8132 19.2083 98.5215 19.9375C99.2298 20.6615 99.584 21.6562 99.584 22.9219V31H95.7637V23.7969C95.7637 23.1979 95.61 22.7422 95.3027 22.4297C94.9954 22.112 94.597 21.9531 94.1074 21.9531C93.5814 21.9531 93.1673 22.125 92.8652 22.4687C92.5684 22.8073 92.4199 23.263 92.4199 23.8359V31H88.748V23.7578C88.748 23.2005 88.597 22.7604 88.2949 22.4375C87.9928 22.1146 87.5944 21.9531 87.0996 21.9531C86.7663 21.9531 86.472 22.0339 86.2168 22.1953C85.9616 22.3516 85.7611 22.5755 85.6152 22.8672C85.4746 23.1589 85.4043 23.5026 85.4043 23.8984V31H81.584ZM116.475 20.7969H112.568C112.516 20.3958 112.41 20.0339 112.248 19.7109C112.087 19.388 111.873 19.112 111.607 18.8828C111.342 18.6536 111.027 18.4792 110.662 18.3594C110.303 18.2344 109.904 18.1719 109.467 18.1719C108.691 18.1719 108.021 18.362 107.459 18.7422C106.902 19.1224 106.472 19.6719 106.17 20.3906C105.873 21.1094 105.725 21.9792 105.725 23C105.725 24.0625 105.876 24.9531 106.178 25.6719C106.485 26.3854 106.915 26.9245 107.467 27.2891C108.024 27.6484 108.683 27.8281 109.443 27.8281C109.87 27.8281 110.258 27.7734 110.607 27.6641C110.962 27.5547 111.271 27.3958 111.537 27.1875C111.808 26.974 112.029 26.7161 112.201 26.4141C112.378 26.1068 112.501 25.7604 112.568 25.375L116.475 25.3984C116.407 26.1068 116.201 26.8047 115.857 27.4922C115.519 28.1797 115.053 28.8073 114.459 29.375C113.865 29.9375 113.141 30.3854 112.287 30.7187C111.438 31.0521 110.464 31.2187 109.365 31.2187C107.917 31.2187 106.62 30.901 105.475 30.2656C104.334 29.625 103.433 28.6927 102.771 27.4687C102.11 26.2448 101.779 24.7552 101.779 23C101.779 21.2396 102.115 19.7474 102.787 18.5234C103.459 17.2995 104.368 16.3698 105.514 15.7344C106.66 15.099 107.943 14.7812 109.365 14.7812C110.334 14.7812 111.23 14.9167 112.053 15.1875C112.876 15.4531 113.6 15.8437 114.225 16.3594C114.85 16.8698 115.357 17.4974 115.748 18.2422C116.139 18.987 116.381 19.8385 116.475 20.7969ZM124.297 31.2266C123.042 31.2266 121.958 30.9792 121.047 30.4844C120.141 29.9844 119.443 29.2734 118.953 28.3516C118.469 27.4245 118.227 26.3229 118.227 25.0469C118.227 23.8073 118.471 22.724 118.961 21.7969C119.451 20.8646 120.141 20.1406 121.031 19.625C121.922 19.1042 122.971 18.8438 124.18 18.8438C125.034 18.8438 125.815 18.9766 126.523 19.2422C127.232 19.5078 127.844 19.901 128.359 20.4219C128.875 20.9427 129.276 21.5859 129.563 22.3516C129.849 23.112 129.992 23.9844 129.992 24.9687V25.9219H119.563V23.7031H126.438C126.432 23.2969 126.336 22.9349 126.148 22.6172C125.961 22.2995 125.703 22.0521 125.375 21.875C125.052 21.6927 124.68 21.6016 124.258 21.6016C123.831 21.6016 123.448 21.6979 123.109 21.8906C122.771 22.0781 122.503 22.3359 122.305 22.6641C122.107 22.987 122.003 23.3542 121.992 23.7656V26.0234C121.992 26.513 122.089 26.9427 122.281 27.3125C122.474 27.6771 122.747 27.9609 123.102 28.1641C123.456 28.3672 123.878 28.4687 124.367 28.4687C124.706 28.4687 125.013 28.4219 125.289 28.3281C125.565 28.2344 125.802 28.0964 126 27.9141C126.198 27.7318 126.346 27.5078 126.445 27.2422L129.953 27.3437C129.807 28.1302 129.487 28.8151 128.992 29.3984C128.503 29.9766 127.859 30.4271 127.063 30.75C126.266 31.0677 125.344 31.2266 124.297 31.2266ZM135.764 24.1562V31H131.943V19H135.576V21.2031H135.709C135.975 20.4687 136.428 19.8932 137.068 19.4766C137.709 19.0547 138.472 18.8438 139.357 18.8438C140.201 18.8438 140.933 19.0339 141.553 19.4141C142.178 19.7891 142.662 20.3151 143.006 20.9922C143.355 21.6641 143.527 22.4505 143.521 23.3516V31H139.701V24.1016C139.706 23.4349 139.537 22.9141 139.193 22.5391C138.855 22.1641 138.383 21.9766 137.779 21.9766C137.378 21.9766 137.024 22.0651 136.717 22.2422C136.415 22.4141 136.18 22.6615 136.014 22.9844C135.852 23.3073 135.769 23.6979 135.764 24.1562ZM152.66 19V21.8125H145.09V19H152.66ZM146.676 16.125H150.496V27.2266C150.496 27.4609 150.533 27.651 150.605 27.7969C150.684 27.9375 150.796 28.0391 150.941 28.1016C151.087 28.1589 151.262 28.1875 151.465 28.1875C151.611 28.1875 151.764 28.1745 151.926 28.1484C152.092 28.1172 152.217 28.0911 152.301 28.0703L152.879 30.8281C152.697 30.8802 152.439 30.9453 152.105 31.0234C151.777 31.1016 151.384 31.151 150.926 31.1719C150.03 31.2135 149.262 31.1094 148.621 30.8594C147.986 30.6042 147.499 30.2083 147.16 29.6719C146.827 29.1354 146.665 28.4609 146.676 27.6484V16.125ZM160.09 31.2266C158.835 31.2266 157.751 30.9792 156.84 30.4844C155.934 29.9844 155.236 29.2734 154.746 28.3516C154.262 27.4245 154.02 26.3229 154.02 25.0469C154.02 23.8073 154.264 22.724 154.754 21.7969C155.243 20.8646 155.934 20.1406 156.824 19.625C157.715 19.1042 158.764 18.8438 159.973 18.8438C160.827 18.8438 161.608 18.9766 162.316 19.2422C163.025 19.5078 163.637 19.901 164.152 20.4219C164.668 20.9427 165.069 21.5859 165.355 22.3516C165.642 23.112 165.785 23.9844 165.785 24.9687V25.9219H155.355V23.7031H162.23C162.225 23.2969 162.129 22.9349 161.941 22.6172C161.754 22.2995 161.496 22.0521 161.168 21.875C160.845 21.6927 160.473 21.6016 160.051 21.6016C159.624 21.6016 159.241 21.6979 158.902 21.8906C158.564 22.0781 158.296 22.3359 158.098 22.6641C157.9 22.987 157.796 23.3542 157.785 23.7656V26.0234C157.785 26.513 157.882 26.9427 158.074 27.3125C158.267 27.6771 158.54 27.9609 158.895 28.1641C159.249 28.3672 159.671 28.4687 160.16 28.4687C160.499 28.4687 160.806 28.4219 161.082 28.3281C161.358 28.2344 161.595 28.0964 161.793 27.9141C161.991 27.7318 162.139 27.5078 162.238 27.2422L165.746 27.3437C165.6 28.1302 165.28 28.8151 164.785 29.3984C164.296 29.9766 163.652 30.4271 162.855 30.75C162.059 31.0677 161.137 31.2266 160.09 31.2266ZM167.736 31V19H171.447V21.1875H171.572C171.791 20.3958 172.148 19.8073 172.643 19.4219C173.137 19.0312 173.713 18.8359 174.369 18.8359C174.546 18.8359 174.729 18.849 174.916 18.875C175.104 18.8958 175.278 18.9297 175.439 18.9766V22.2969C175.257 22.2344 175.018 22.1849 174.721 22.1484C174.429 22.112 174.169 22.0937 173.939 22.0937C173.486 22.0937 173.077 22.1953 172.713 22.3984C172.354 22.5964 172.07 22.875 171.861 23.2344C171.658 23.5885 171.557 24.0052 171.557 24.4844V31H167.736Z" fill="white"/>
<path fill-rule="evenodd" clip-rule="evenodd" d="M45.8225 22C45.8225 34.1503 35.5648 44 22.9112 44C10.2577 44 0 34.1503 0 22C0 9.84974 10.2577 0 22.9112 0C35.5648 0 45.8225 9.84974 45.8225 22ZM16.6627 18C16.6627 20.7614 14.3314 23 11.4556 23C8.57982 23 6.24852 20.7614 6.24852 18C6.24852 15.2386 8.57982 13 11.4556 13C14.3314 13 16.6627 15.2386 16.6627 18ZM15.6213 36C18.4971 36 20.8284 33.7614 20.8284 31C20.8284 28.2386 18.4971 26 15.6213 26C12.7455 26 10.4142 28.2386 10.4142 31C10.4142 33.7614 12.7455 36 15.6213 36ZM35.4083 31C35.4083 33.7614 33.077 36 30.2012 36C27.3254 36 24.9941 33.7614 24.9941 31C24.9941 28.2386 27.3254 26 30.2012 26C33.077 26 35.4083 28.2386 35.4083 31ZM34.3669 23C37.2426 23 39.574 20.7614 39.574 18C39.574 15.2386 37.2426 13 34.3669 13C31.4911 13 29.1598 15.2386 29.1598 18C29.1598 20.7614 31.4911 23 34.3669 23ZM28.1183 10C28.1183 12.7614 25.787 15 22.9112 15C20.0355 15 17.7041 12.7614 17.7041 10C17.7041 7.23858 20.0355 5 22.9112 5C25.787 5 28.1183 7.23858 28.1183 10ZM22.9112 24C24.0616 24 24.9941 23.1046 24.9941 22C24.9941 20.8954 24.0616 20 22.9112 20C21.7609 20 20.8284 20.8954 20.8284 22C20.8284 23.1046 21.7609 24 22.9112 24Z" fill="#E2D703"/>
<path d="M34.8876 38.5C36.9704 37.1667 44.7811 35 51.5503 40" stroke="#E2D703" stroke-width="3" stroke-linecap="round" stroke-linejoin="round"/>
</g>
<defs>
<clipPath id="clip0_102_100">
<rect width="176" height="44" fill="white"/>
</clipPath>
</defs>
</svg>
